<mxfile host="app.diagrams.net" modified="2022-01-20T20:46:37.759Z" agent="5.0 (Macintosh; Intel Mac OS X 10_15_7) AppleWebKit/605.1.15 (KHTML, like Gecko) Version/15.2 Safari/605.1.15" etag="-7kFvGJZiQ0yWJvB0XQ2" version="16.2.7" type="github">
  <diagram id="3hvIgo4aF5K8o83gotN1" name="Page-1">
    <mxGraphModel dx="946" dy="620" grid="1" gridSize="13" guides="1" tooltips="1" connect="1" arrows="1" fold="1" page="1" pageScale="1" pageWidth="1169" pageHeight="827" math="1" shadow="0">
      <root>
        <mxCell id="0" />
        <mxCell id="1" parent="0" />
      </root>
    </mxGraphModel>
  </diagram>
</mxfile>
